<?xml version="1.0" encoding="utf-8"?>
<!-- Generator: Adobe Illustrator 23.0.1, SVG Export Plug-In . SVG Version: 6.00 Build 0)  -->
<svg version="1.1" id="Capa_1" xmlns="http://www.w3.org/2000/svg" xmlns:xlink="http://www.w3.org/1999/xlink" x="0px" y="0px"
	 viewBox="0 0 56 56" style="enable-background:new 0 0 56 56;" xml:space="preserve">
<style type="text/css">
	.st0{fill:#E9E9E0;}
	.st1{fill:#D9D7CA;}
	.st2{fill:#8F457A;}
</style>
<g>
	<path class="st0" d="M37,0H8C7.2,0,6.5,0.7,6.5,1.9V55c0,0.3,0.7,1,1.5,1H48c0.8,0,1.5-0.7,1.5-1V13c0-0.7-0.1-0.9-0.3-1.1
		L37.6,0.3C37.4,0.1,37.2,0,37,0z"/>
	<polygon class="st1" points="37.5,0.2 37.5,12 49.3,12 	"/>
	<path class="st2" d="M48,56H8c-0.8,0-1.5-0.7-1.5-1.5V39h43v15.5C49.5,55.3,48.8,56,48,56z"/>
	<g>
		<path class="st2" d="M19.5,19v-4c0-0.6,0.4-1,1-1c0.6,0,1-0.4,1-1s-0.4-1-1-1c-1.7,0-3,1.3-3,3v4c0,1.1-0.9,2-2,2
			c-0.6,0-1,0.4-1,1s0.4,1,1,1c1.1,0,2,0.9,2,2v4c0,1.7,1.3,3,3,3c0.6,0,1-0.4,1-1s-0.4-1-1-1c-0.6,0-1-0.4-1-1v-4
			c0-1.2-0.5-2.3-1.4-3C19,21.3,19.5,20.2,19.5,19z"/>
		<path class="st2" d="M39.5,21c-1.1,0-2-0.9-2-2v-4c0-1.7-1.3-3-3-3c-0.6,0-1,0.4-1,1s0.4,1,1,1c0.6,0,1,0.4,1,1v4
			c0,1.2,0.5,2.3,1.4,3c-0.8,0.7-1.4,1.8-1.4,3v4c0,0.6-0.4,1-1,1c-0.6,0-1,0.4-1,1s0.4,1,1,1c1.7,0,3-1.3,3-3v-4c0-1.1,0.9-2,2-2
			c0.6,0,1-0.4,1-1S40.1,21,39.5,21z"/>
	</g>
	<g>
		<path class="st0" d="M11.4,43c0.6-0.1,1.6-0.2,2.7-0.2c1.4,0,2.2,0.2,2.9,0.6c0.6,0.4,1.1,1,1.1,1.9c0,0.9-0.6,1.8-1.7,2.2v0
			c1.1,0.3,2,1.1,2,2.5c0,0.9-0.4,1.6-1,2.1c-0.7,0.6-1.9,0.9-3.7,0.9c-1,0-1.8-0.1-2.3-0.1V43z M13.2,47h0.9c1.3,0,2-0.6,2-1.5
			c0-0.9-0.7-1.4-1.9-1.4c-0.5,0-0.9,0-1,0.1V47z M13.2,51.7c0.2,0,0.6,0,1,0c1.2,0,2.2-0.5,2.2-1.7c0-1.2-1-1.6-2.3-1.6h-0.9V51.7z
			"/>
		<path class="st0" d="M22.5,44.4h-2.9v-1.5h7.6v1.5h-2.9V53h-1.8V44.4z"/>
		<path class="st0" d="M29,51c0.6,0.3,1.5,0.6,2.4,0.6c1.2,0,1.8-0.6,1.8-1.4c0-0.8-0.5-1.2-1.8-1.7c-1.7-0.6-2.7-1.5-2.7-2.9
			c0-1.7,1.4-2.9,3.6-2.9c1.1,0,1.9,0.2,2.4,0.5l-0.5,1.5c-0.4-0.2-1.1-0.5-2-0.5c-1.2,0-1.7,0.6-1.7,1.2c0,0.8,0.6,1.1,1.9,1.7
			c1.8,0.7,2.6,1.5,2.6,3c0,1.6-1.2,3-3.8,3c-1.1,0-2.2-0.3-2.7-0.6L29,51z"/>
		<path class="st0" d="M37.6,43c0.7-0.1,1.6-0.2,2.8-0.2c1.4,0,2.3,0.3,3,0.8c0.6,0.5,1,1.3,1,2.2c0,1-0.3,1.8-0.9,2.3
			c-0.7,0.7-1.9,1.1-3.2,1.1c-0.3,0-0.7,0-0.9-0.1V53h-1.8V43z M39.4,47.7c0.2,0.1,0.5,0.1,0.9,0.1c1.4,0,2.2-0.7,2.2-1.9
			c0-1.1-0.8-1.7-2.1-1.7c-0.5,0-0.9,0-1.1,0.1V47.7z"/>
	</g>
</g>
</svg>
